#Comment line ignore any data following # character 
#Hierarchical Translation and Rotation (.htr) file 
[Header]	
#Header keywords are followed by a single value 
FileType HTR		#Single word string
DataType HTRS		#Translation followed by rotation and scale data
FileVersion 1		#integer
NumSegments 64		#integer
NumFrames 3		#integer
DataFrameRate 30		#integer, data frame rate in this file
EulerRotationOrder ZYX
CalibrationUnits mm
RotationUnits Degrees
GlobalAxisofGravity Y
BoneLengthAxis Y
ScaleFactor 1.00
[SegmentNames&Hierarchy]
#CHILD	PARENT
Pinger_Root GLOBAL
Pelvis Pinger_Root
L_Hip Pelvis
R_Hip Pelvis
Rear_Leg01 Pelvis
Spine1 Pelvis
L_Leg01 L_Hip
L_Leg02 L_Leg01
L_Leg03 L_Leg02
L_Foot L_Leg03
L_Toe1_01 L_Foot
L_Toe2_01 L_Foot
L_Toe3_01 L_Foot
planeAlignerLeft L_Foot
L_Toe1_02 L_Toe1_01
L_Toe1_03 L_Toe1_02
L_Toe2_02 L_Toe2_01
L_Toe2_03 L_Toe2_02
L_Toe3_02 L_Toe3_01
L_Toe3_03 L_Toe3_02
planeLockWeightLeft planeAlignerLeft
R_Leg01 R_Hip
R_Leg02 R_Leg01
R_Leg03 R_Leg02
R_Foot R_Leg03
planeAlignerRight R_Foot
R_Toe1_01 R_Foot
R_Toe2_01 R_Foot
R_Toe3_01 R_Foot
planeLockWeightRight planeAlignerRight
R_Toe1_02 R_Toe1_01
R_Toe1_03 R_Toe1_02
R_Toe2_02 R_Toe2_01
R_Toe2_03 R_Toe2_02
R_Toe3_02 R_Toe3_01
R_Toe3_03 R_Toe3_02
Rear_Leg02 Rear_Leg01
Rear_Leg03 Rear_Leg02
Rear_Leg04 Rear_Leg03
Rear_Foot Rear_Leg04
planeAlignerCenter Rear_Foot
Rear_Toe1_01 Rear_Foot
Rear_Toe2_01 Rear_Foot
Rear_Toe3_01 Rear_Foot
planeLockWeightCenter planeAlignerCenter
Rear_Toe1_02 Rear_Toe1_01
Rear_Toe1_03 Rear_Toe1_02
Rear_Toe2_02 Rear_Toe2_01
Rear_Toe2_03 Rear_Toe2_02
Rear_Toe3_02 Rear_Toe3_01
Rear_Toe3_03 Rear_Toe3_02
Back_Bone Spine1
Head Spine1
Motor_Bone Back_Bone
Ping_Mechanism Back_Bone
BN_LookIK Head
bottomMouth Head
L_Mouth01 Head
L_mouthFront Head
mouthGun Head
R_Mouth01 Head
R_mouthFront Head
TopMouth Head
weapon_bone Head
[BasePosition]
#SegmentName Tx, Ty, Tz, Rx, Ry, Rz, BoneLength
Pinger_Root 0.000000 0.000000 0.000000 -90.000000 0.000000 0.000000 10.000000 
Pelvis 0.000000 0.000000 0.000000 0.000000 0.000000 0.000000 10.000000 
L_Hip 0.000000 0.000000 0.000000 0.000000 0.000000 0.000000 10.000000 
R_Hip 0.000000 0.000000 0.000000 0.000000 0.000000 0.000000 10.000000 
Rear_Leg01 0.000000 0.000000 0.000000 0.000000 0.000000 0.000000 10.000000 
Spine1 0.000000 0.000000 0.000000 0.000000 0.000000 0.000000 10.000000 
L_Leg01 0.000000 0.000000 0.000000 0.000000 0.000000 0.000000 10.000000 
L_Leg02 0.000000 0.000000 0.000000 0.000000 0.000000 0.000000 10.000000 
L_Leg03 0.000000 0.000000 0.000000 0.000000 0.000000 0.000000 10.000000 
L_Foot 0.000000 0.000000 0.000000 0.000000 0.000000 0.000000 10.000000 
L_Toe1_01 0.000000 0.000000 0.000000 0.000000 0.000000 0.000000 10.000000 
L_Toe2_01 0.000000 0.000000 0.000000 0.000000 0.000000 0.000000 10.000000 
L_Toe3_01 0.000000 0.000000 0.000000 0.000000 0.000000 0.000000 10.000000 
planeAlignerLeft 0.000000 0.000000 0.000000 0.000000 0.000000 0.000000 10.000000 
L_Toe1_02 0.000000 0.000000 0.000000 0.000000 0.000000 0.000000 10.000000 
L_Toe1_03 0.000000 0.000000 0.000000 0.000000 0.000000 0.000000 10.000000 
L_Toe2_02 0.000000 0.000000 0.000000 0.000000 0.000000 0.000000 10.000000 
L_Toe2_03 0.000000 0.000000 0.000000 0.000000 0.000000 0.000000 10.000000 
L_Toe3_02 0.000000 0.000000 0.000000 0.000000 0.000000 0.000000 10.000000 
L_Toe3_03 0.000000 0.000000 0.000000 0.000000 0.000000 0.000000 10.000000 
planeLockWeightLeft 0.000000 0.000000 0.000000 0.000000 0.000000 0.000000 10.000000 
R_Leg01 0.000000 0.000000 0.000000 0.000000 0.000000 0.000000 10.000000 
R_Leg02 0.000000 0.000000 0.000000 0.000000 0.000000 0.000000 10.000000 
R_Leg03 0.000000 0.000000 0.000000 0.000000 0.000000 0.000000 10.000000 
R_Foot 0.000000 0.000000 0.000000 0.000000 0.000000 0.000000 10.000000 
planeAlignerRight 0.000000 0.000000 0.000000 0.000000 0.000000 0.000000 10.000000 
R_Toe1_01 0.000000 0.000000 0.000000 0.000000 0.000000 0.000000 10.000000 
R_Toe2_01 0.000000 0.000000 0.000000 0.000000 0.000000 0.000000 10.000000 
R_Toe3_01 0.000000 0.000000 0.000000 0.000000 0.000000 0.000000 10.000000 
planeLockWeightRight 0.000000 0.000000 0.000000 0.000000 0.000000 0.000000 10.000000 
R_Toe1_02 0.000000 0.000000 0.000000 0.000000 0.000000 0.000000 10.000000 
R_Toe1_03 0.000000 0.000000 0.000000 0.000000 0.000000 0.000000 10.000000 
R_Toe2_02 0.000000 0.000000 0.000000 0.000000 0.000000 0.000000 10.000000 
R_Toe2_03 0.000000 0.000000 0.000000 0.000000 0.000000 0.000000 10.000000 
R_Toe3_02 0.000000 0.000000 0.000000 0.000000 0.000000 0.000000 10.000000 
R_Toe3_03 0.000000 0.000000 0.000000 0.000000 0.000000 0.000000 10.000000 
Rear_Leg02 0.000000 0.000000 0.000000 0.000000 0.000000 0.000000 10.000000 
Rear_Leg03 0.000000 0.000000 0.000000 0.000000 0.000000 0.000000 10.000000 
Rear_Leg04 0.000000 0.000000 0.000000 0.000000 0.000000 0.000000 10.000000 
Rear_Foot 0.000000 0.000000 0.000000 0.000000 0.000000 0.000000 10.000000 
planeAlignerCenter 0.000000 0.000000 0.000000 0.000000 0.000000 0.000000 10.000000 
Rear_Toe1_01 0.000000 0.000000 0.000000 0.000000 0.000000 0.000000 10.000000 
Rear_Toe2_01 0.000000 0.000000 0.000000 0.000000 0.000000 0.000000 10.000000 
Rear_Toe3_01 0.000000 0.000000 0.000000 0.000000 0.000000 0.000000 10.000000 
planeLockWeightCenter 0.000000 0.000000 0.000000 0.000000 0.000000 0.000000 10.000000 
Rear_Toe1_02 0.000000 0.000000 0.000000 0.000000 0.000000 0.000000 10.000000 
Rear_Toe1_03 0.000000 0.000000 0.000000 0.000000 0.000000 0.000000 10.000000 
Rear_Toe2_02 0.000000 0.000000 0.000000 0.000000 0.000000 0.000000 10.000000 
Rear_Toe2_03 0.000000 0.000000 0.000000 0.000000 0.000000 0.000000 10.000000 
Rear_Toe3_02 0.000000 0.000000 0.000000 0.000000 0.000000 0.000000 10.000000 
Rear_Toe3_03 0.000000 0.000000 0.000000 0.000000 0.000000 0.000000 10.000000 
Back_Bone 0.000000 0.000000 0.000000 0.000000 0.000000 0.000000 10.000000 
Head 0.000000 0.000000 0.000000 0.000000 0.000000 0.000000 10.000000 
Motor_Bone 0.000000 0.000000 0.000000 0.000000 0.000000 0.000000 10.000000 
Ping_Mechanism 0.000000 0.000000 0.000000 0.000000 0.000000 0.000000 10.000000 
BN_LookIK 0.000000 0.000000 0.000000 0.000000 0.000000 0.000000 10.000000 
bottomMouth 0.000000 0.000000 0.000000 0.000000 0.000000 0.000000 10.000000 
L_Mouth01 0.000000 0.000000 0.000000 0.000000 0.000000 0.000000 10.000000 
L_mouthFront 0.000000 0.000000 0.000000 0.000000 0.000000 0.000000 10.000000 
mouthGun 0.000000 0.000000 0.000000 0.000000 0.000000 0.000000 10.000000 
R_Mouth01 0.000000 0.000000 0.000000 0.000000 0.000000 0.000000 10.000000 
R_mouthFront 0.000000 0.000000 0.000000 0.000000 0.000000 0.000000 10.000000 
TopMouth 0.000000 0.000000 0.000000 0.000000 0.000000 0.000000 10.000000 
weapon_bone 0.000000 0.000000 0.000000 0.000000 0.000000 0.000000 10.000000 
#Beginning of Data. Separated by tabs
#Fr	Tx	Ty	Tz	Rx	Ry	Rz	SF
[Pinger_Root]
5 0.000000 0.000000 0.000000 -0.000075 -0.000000 -0.000020 0.000000
6 0.000000 0.000000 0.000000 -0.000075 -0.000000 -0.000020 0.000000
7 0.000000 0.000000 0.000000 -0.000075 -0.000000 -0.000020 0.000000
[Pelvis]
5 -448.042206 648.263245 4588.367188 -136.450058 -84.346115 128.703720 4655.544922
6 -502.857147 622.886658 4626.259766 168.763611 -84.806091 -176.375137 4695.011230
7 -547.515137 602.631104 4645.991211 138.836075 -83.339706 -146.294678 4716.796875
[L_Hip]
5 5.766392 125.831482 872.656799 160.158691 -45.484905 122.312202 881.701050
6 5.766392 125.831482 872.656799 160.158691 -45.484894 122.312202 881.701050
7 5.766392 125.831482 872.656799 160.158691 -45.484905 122.312202 881.701050
[R_Hip]
5 5.765438 125.836372 -872.654907 38.087841 49.812687 125.703735 881.699829
6 5.765438 125.836372 -872.654907 38.087841 49.812687 125.703735 881.699829
7 5.765438 125.836372 -872.654907 38.087841 49.812687 125.703735 881.699829
[Rear_Leg01]
5 -192.298416 -925.602966 -0.001907 169.411972 5.256084 -164.557037 945.367432
6 -192.298416 -925.602966 -0.001907 169.137131 5.023935 -159.618423 945.367432
7 -192.298416 -925.602966 -0.001907 169.271515 5.715439 -156.153793 945.367432
[Spine1]
5 290.604584 5.007505 0.000477 18.861185 -14.056490 -4.066736 290.647736
6 290.604584 5.007505 0.000477 23.225746 -11.232369 -4.048523 290.647736
7 290.604584 5.007505 0.000477 23.775476 -10.271770 -2.714099 290.647736
[L_Leg01]
5 761.932007 -0.002384 -0.069261 19.947014 -19.131592 -9.336069 761.932068
6 761.932007 -0.002384 -0.069261 23.584934 -17.124908 -13.872383 761.932068
7 761.932007 -0.002384 -0.069261 25.634775 -15.818894 -18.292194 761.932068
[L_Leg02]
5 1441.140503 -0.000954 -0.000715 2.161320 -0.170807 -124.853363 1441.140503
6 1441.140503 -0.000954 -0.000715 2.087511 -0.172888 -124.183319 1441.140503
7 1441.140503 -0.000954 -0.000715 1.904682 -0.163053 -122.391502 1441.140503
[L_Leg03]
5 1686.963989 -0.000715 -0.000954 -0.027452 0.010331 117.552856 1686.963989
6 1686.963989 -0.000715 -0.000954 -0.027455 0.010324 117.521042 1686.963989
7 1686.963989 -0.000715 -0.000954 -0.027476 0.010268 117.289513 1686.963989
[L_Foot]
5 3041.570068 -30.715107 11.297464 9.277627 13.192408 53.637772 3041.746094
6 3041.570068 -30.715107 11.297464 9.992058 13.230109 53.839424 3041.746094
7 3041.570068 -30.715107 11.297464 10.682262 13.306056 53.727879 3041.746094
[L_Toe1_01]
5 -188.216690 -224.732346 -21.137953 93.264137 -10.074028 -169.823578 293.899567
6 -188.216690 -224.732346 -21.137953 92.916534 -10.480613 -166.946976 293.899567
7 -188.216690 -224.732346 -21.137953 92.746986 -10.693213 -165.568375 293.899567
[L_Toe2_01]
5 200.746536 -219.926590 148.838394 -88.564575 -30.688751 -53.071949 332.896027
6 200.746536 -219.926590 148.838394 -87.234528 -30.439224 -56.220299 332.896027
7 200.746536 -219.926590 148.838394 -86.544029 -30.299299 -57.863873 332.896027
[L_Toe3_01]
5 188.832520 -219.859131 -191.078659 -98.206398 10.837214 -65.076752 347.140900
6 188.832520 -219.859131 -191.078659 -98.422134 9.630877 -68.334953 347.140900
7 188.832520 -219.859131 -191.078659 -98.495804 8.987824 -70.027664 347.140900
[planeAlignerLeft]
5 0.812531 -811.448792 -0.314951 0.000000 -90.000000 -90.001900 811.449280
6 0.812531 -811.448792 -0.314951 0.000000 -90.000000 -90.001900 811.449280
7 0.812531 -811.448792 -0.314951 0.000000 -90.000000 -90.001900 811.449280
[L_Toe1_02]
5 413.761139 0.000477 0.000000 0.001392 -24.963314 0.001392 413.761139
6 413.761139 0.000477 0.000000 0.001402 -23.652048 0.001402 413.761139
7 413.761139 0.000477 0.000000 0.001413 -22.340786 0.001413 413.761139
[L_Toe1_03]
5 464.317322 0.000358 -0.000089 0.002802 40.472599 0.002802 464.317322
6 464.317322 0.000358 -0.000089 0.002517 34.404037 0.002517 464.317322
7 464.317322 0.000358 -0.000089 0.000859 30.391853 -0.003171 464.317322
[L_Toe2_02]
5 342.235809 -0.000477 0.000238 0.001187 -72.690666 0.001187 342.235809
6 342.235809 -0.000477 0.000238 0.001189 -71.272232 0.001189 342.235809
7 342.235809 -0.000477 0.000238 0.001191 -70.391647 0.001191 342.235809
[L_Toe2_03]
5 420.210846 -0.000715 0.000000 0.008480 86.329605 0.010230 420.210846
6 420.210846 -0.000715 0.000000 0.018172 82.594032 0.018172 420.210846
7 420.210846 -0.000715 0.000000 0.013998 80.381027 0.013998 420.210846
[L_Toe3_02]
5 329.270111 0.000954 0.000000 0.001176 -82.410591 0.001176 329.270111
6 329.270111 0.000954 0.000000 0.001177 -81.703857 0.001177 329.270111
7 329.270111 0.000954 0.000000 0.001177 -81.289566 0.001177 329.270111
[L_Toe3_03]
5 439.137451 -0.001907 0.000954 179.995651 69.499947 -179.999023 439.137451
6 439.137451 -0.001907 0.000954 -179.997787 73.359024 -179.994263 439.137451
7 439.137451 -0.001907 0.000954 -179.997192 75.570442 -179.993668 439.137451
[planeLockWeightLeft]
5 -0.000954 0.000238 -0.000305 -0.011826 -0.004376 0.005620 0.001029
6 -0.000954 0.000238 -0.000305 -0.011826 -0.004376 0.005620 0.001029
7 -0.000954 0.000238 -0.000305 -0.011826 -0.004376 0.005620 0.001029
[R_Leg01]
5 761.455627 -0.001907 -0.000358 120.202919 4.882266 42.774940 761.455688
6 761.455627 -0.001907 -0.000358 119.777763 14.031463 49.575382 761.455688
7 761.455627 -0.001907 -0.000358 119.776306 20.561975 53.158043 761.455688
[R_Leg02]
5 1441.140625 0.000000 -0.000238 0.179249 0.118884 -76.772629 1441.140625
6 1441.140625 0.000000 -0.000238 0.618206 0.073644 -63.049210 1441.140625
7 1441.140625 0.000000 -0.000238 0.861019 0.015315 -54.283157 1441.140625
[R_Leg03]
5 1686.963989 0.000954 0.001431 0.031899 -0.011760 118.668678 1686.963989
6 1686.963989 0.000954 0.001431 0.011836 -0.006077 113.881721 1686.963989
7 1686.963989 0.000954 0.001431 0.002309 -0.000421 110.653358 1686.963989
[R_Foot]
5 3041.560059 -30.531288 -11.204481 5.086181 -24.287466 38.233803 3041.734131
6 3041.560059 -30.531288 -11.204481 5.177932 -24.199419 35.834339 3041.734131
7 3041.560059 -30.531288 -11.204481 5.466364 -24.096315 34.336288 3041.734131
[planeAlignerRight]
5 -0.635147 -812.270569 -0.364304 0.000000 -89.960434 -90.005180 812.270874
6 -0.635147 -812.270569 -0.364304 0.000000 -89.960434 -90.005180 812.270874
7 -0.635147 -812.270569 -0.364304 0.000000 -89.960434 -90.005180 812.270874
[R_Toe1_01]
5 -188.383347 -224.864899 21.052242 76.800476 -1.246476 -170.182449 294.101532
6 -188.383347 -224.864899 21.052242 76.816338 -1.544935 -169.504745 294.101532
7 -188.383347 -224.864899 21.052242 76.833023 -1.797719 -169.196335 294.101532
[R_Toe2_01]
5 200.637817 -220.002121 -148.787384 -92.156082 30.972313 -61.028416 332.857574
6 200.637817 -220.002121 -148.787384 -92.194542 30.410046 -61.420872 332.857574
7 200.637817 -220.002121 -148.787384 -92.156067 30.043434 -61.567181 332.857574
[R_Toe3_01]
5 188.606735 -220.092957 191.126343 -72.870285 -8.557169 -76.017326 347.192566
6 188.606735 -220.092957 191.126343 -72.750237 -8.666694 -76.523582 347.192566
7 188.606735 -220.092957 191.126343 -72.665268 -8.815786 -76.656776 347.192566
[planeLockWeightRight]
5 -0.000477 0.000000 0.000000 -0.011823 -0.004379 -0.000027 0.000477
6 -0.000477 0.000000 0.000000 -0.011823 -0.004379 -0.000027 0.000477
7 -0.000477 0.000000 0.000000 -0.011823 -0.004379 -0.000027 0.000477
[R_Toe1_02]
5 413.762085 0.000477 -0.000119 0.000006 -25.434675 -0.000005 413.762085
6 413.762085 0.000477 -0.000119 0.000006 -25.434675 -0.000005 413.762085
7 413.762085 0.000477 -0.000119 0.000006 -25.434675 -0.000005 413.762085
[R_Toe1_03]
5 464.317810 0.000000 0.001088 0.006314 68.575386 0.006314 464.317810
6 464.317810 0.000000 0.001088 0.006215 68.231812 0.006215 464.317810
7 464.317810 0.000000 0.001088 0.006212 68.219879 0.006212 464.317810
[R_Toe2_02]
5 342.234741 -0.000954 0.000238 0.001201 -65.343933 0.001201 342.234741
6 342.234741 -0.000954 0.000238 0.001203 -64.762215 0.001203 342.234741
7 342.234741 -0.000954 0.000238 0.001203 -64.621758 0.001203 342.234741
[R_Toe2_03]
5 420.210846 0.000715 -0.000268 -0.005054 69.804291 -0.001502 420.210846
6 420.210846 0.000715 -0.000268 -0.004915 68.884216 -0.001358 420.210846
7 420.210846 0.000715 -0.000268 -0.004879 68.632530 -0.001321 420.210846
[R_Toe3_02]
5 329.270355 -0.000477 -0.000954 -0.006999 -70.846336 0.007015 329.270355
6 329.270355 -0.000477 -0.000954 -0.010458 -69.601372 0.009290 329.270355
7 329.270355 -0.000477 -0.000954 -0.002363 -68.916161 -0.002363 329.270355
[R_Toe3_03]
5 439.137939 0.000238 0.001431 0.009030 75.064392 0.009030 439.137939
6 439.137939 0.000238 0.001431 0.007798 72.688339 0.007798 439.137939
7 439.137939 0.000238 0.001431 0.007264 71.404137 0.007264 439.137939
[Rear_Leg02]
5 1162.777710 -0.029802 0.005960 0.686953 -2.906355 -124.785385 1162.777710
6 1162.777710 -0.029802 0.005960 0.776484 -2.884352 -126.572571 1162.777710
7 1162.777710 -0.029802 0.005960 0.838888 -2.861526 -127.916115 1162.777710
[Rear_Leg03]
5 607.192505 -0.013351 -0.073195 0.010638 -0.004793 64.865784 607.192505
6 607.192505 -0.013351 -0.073195 0.010615 -0.004846 65.427124 607.192505
7 607.192505 -0.013351 -0.073195 0.010591 -0.004897 65.988487 607.192505
[Rear_Leg04]
5 995.874512 -0.020504 -0.011921 -0.040662 -0.014768 59.351955 995.874573
6 995.874512 -0.020504 -0.011921 -0.043325 -0.018571 60.659760 995.874573
7 995.874512 -0.020504 -0.011921 -0.043483 -0.018199 61.642048 995.874573
[Rear_Foot]
5 3096.176270 -0.067472 -0.041425 -32.943008 85.189728 156.238403 3096.176270
6 3096.176270 -0.067472 -0.041425 -29.219379 84.658188 160.029144 3096.176270
7 3096.176270 -0.067472 -0.041425 -26.185963 84.107780 163.129562 3096.176270
[planeAlignerCenter]
5 0.350077 0.966311 -838.790894 0.000009 0.000003 -179.999985 838.791565
6 0.350077 0.966311 -838.790894 0.000009 0.000003 -179.999985 838.791565
7 0.350077 0.966311 -838.790894 0.000009 0.000003 -179.999985 838.791565
[Rear_Toe1_01]
5 0.653352 83.966492 -371.173737 0.288091 41.914127 90.413170 380.553192
6 0.653352 83.966492 -371.173737 0.288091 41.914127 90.413170 380.553192
7 0.653352 83.966492 -371.173737 0.288095 41.914120 90.413170 380.553192
[Rear_Toe2_01]
5 178.200760 -294.826019 -362.060547 -7.196267 34.406261 -66.271294 499.765686
6 178.200760 -294.826019 -362.060547 -7.196267 34.406261 -66.271294 499.765686
7 178.200760 -294.826019 -362.060547 -7.196267 34.406261 -66.271294 499.765686
[Rear_Toe3_01]
5 -153.359680 -308.780914 -362.060852 3.289418 33.518005 -112.540970 499.952881
6 -153.359680 -308.780914 -362.060852 3.289418 33.518005 -112.540970 499.952881
7 -153.359680 -308.780914 -362.060852 3.289418 33.518005 -112.540970 499.952881
[planeLockWeightCenter]
5 -0.000062 0.000238 0.000000 -0.011814 -0.004373 -0.000015 0.000246
6 -0.000062 0.000238 0.000000 -0.011814 -0.004373 -0.000015 0.000246
7 -0.000062 0.000238 0.000000 -0.011814 -0.004373 -0.000015 0.000246
[Rear_Toe1_02]
5 379.707825 0.194073 0.000477 -0.000242 -31.676744 0.006934 379.707855
6 379.707825 0.194073 0.000477 -0.000242 -31.676744 0.006934 379.707855
7 379.707825 0.194073 0.000477 -0.000242 -31.676744 0.006934 379.707855
[Rear_Toe1_03]
5 500.129700 0.165701 0.000119 -0.000103 51.902481 0.007295 500.129761
6 500.129700 0.165701 0.000119 -0.000103 51.902481 0.007295 500.129761
7 500.129700 0.165701 0.000119 -0.000103 51.902485 0.007295 500.129761
[Rear_Toe2_02]
5 340.494507 0.000238 -0.000954 0.001192 -69.854523 0.001192 340.494507
6 340.494507 0.000238 -0.000954 0.001192 -69.854523 0.001192 340.494507
7 340.494507 0.000238 -0.000954 0.001192 -69.854523 0.001192 340.494507
[Rear_Toe2_03]
5 433.103577 0.000000 0.000238 0.006696 69.810303 0.006696 433.103546
6 433.103577 0.000000 0.000238 0.006696 69.810326 0.006696 433.103546
7 433.103577 0.000000 0.000238 0.006696 69.810326 0.006696 433.103546
[Rear_Toe3_02]
5 340.494141 -0.000358 -0.000477 0.008288 -67.274704 -0.009460 340.494171
6 340.494141 -0.000358 -0.000477 0.008288 -67.274712 -0.009460 340.494171
7 340.494141 -0.000358 -0.000477 0.008288 -67.274704 -0.009460 340.494171
[Rear_Toe3_03]
5 433.103577 0.001431 -0.000238 -0.000972 65.958984 -0.004547 433.103546
6 433.103577 0.001431 -0.000238 -0.000972 65.959007 -0.004547 433.103546
7 433.103577 0.001431 -0.000238 -0.000972 65.958984 -0.004547 433.103546
[Back_Bone]
5 1312.175781 -701.934692 0.000954 0.000023 -0.000007 -85.606667 1488.125488
6 1312.175781 -701.934692 0.000954 0.000023 -0.000007 -85.606667 1488.125488
7 1312.175781 -701.934692 0.000954 0.000023 -0.000007 -85.606667 1488.125488
[Head]
5 1406.159424 809.709290 0.001431 0.102051 -8.430281 3.416435 1622.625488
6 1406.159424 809.709290 0.001431 -0.417090 -9.519484 -3.855212 1622.625488
7 1406.159424 809.709290 0.001431 -0.700407 -10.381479 -4.688665 1622.625488
[Motor_Bone]
5 1158.364380 -417.834747 0.000477 -0.000105 0.000046 -105.985291 1231.419434
6 1158.364380 -417.834747 0.000477 -0.000105 0.000046 -105.985291 1231.419434
7 1158.364380 -417.834747 0.000477 -0.000105 0.000046 -105.985291 1231.419434
[Ping_Mechanism]
5 1215.237793 -433.297150 0.000954 0.000103 -0.000053 82.120995 1290.174072
6 1215.237793 -433.297150 0.000954 0.000103 -0.000053 82.120995 1290.174072
7 1215.237793 -433.297150 0.000954 0.000103 -0.000053 82.120995 1290.174072
[BN_LookIK]
5 193.241119 1380.371704 -0.002861 0.000000 89.965736 -31.038179 1393.832153
6 193.241119 1380.371704 -0.002861 0.000000 89.965736 -31.038179 1393.832153
7 193.241119 1380.371704 -0.002861 0.000000 89.965736 -31.038179 1393.832153
[bottomMouth]
5 -435.092926 615.759399 -0.000954 -0.000022 0.000016 73.527184 753.966492
6 -435.092926 615.759399 -0.000954 -0.000022 0.000016 73.527184 753.966492
7 -435.092926 615.759399 -0.000954 -0.000022 0.000016 73.527184 753.966492
[L_Mouth01]
5 554.440979 7.658243 838.222046 150.204178 23.759130 109.605339 1005.027161
6 554.440979 7.658243 838.222046 150.204178 23.759130 109.605339 1005.027161
7 554.440979 7.658243 838.222046 150.204178 23.759130 109.605339 1005.027161
[L_mouthFront]
5 551.629089 934.514771 339.150421 0.000081 2.804060 79.119301 1136.941284
6 551.629089 934.514771 339.150421 0.000081 2.804060 79.119301 1136.941284
7 551.629089 934.514771 339.150421 0.000081 2.804060 79.119301 1136.941284
[mouthGun]
5 55.332661 1627.420898 0.000000 0.000023 0.000009 -11.038128 1628.361328
6 55.332661 1627.420898 0.000000 0.000023 0.000009 -11.038128 1628.361328
7 55.332661 1627.420898 0.000000 0.000023 0.000009 -11.038128 1628.361328
[R_Mouth01]
5 554.442383 7.659197 -838.223938 29.795891 -23.759109 109.605331 1005.029541
6 554.442383 7.659197 -838.223938 29.795891 -23.759109 109.605331 1005.029541
7 554.442383 7.659197 -838.223938 29.795891 -23.759109 109.605331 1005.029541
[R_mouthFront]
5 551.629089 934.514282 -339.151367 0.000029 -2.803930 79.119133 1136.941162
6 551.629089 934.514282 -339.151367 0.000029 -2.803930 79.119133 1136.941162
7 551.629089 934.514282 -339.151367 0.000029 -2.803930 79.119133 1136.941162
[TopMouth]
5 461.269867 -56.106091 -0.008583 -0.000059 -0.000268 92.025169 464.669525
6 461.269867 -56.106091 -0.008583 -0.000059 -0.000268 92.025169 464.669525
7 461.269867 -56.106091 -0.008583 -0.000059 -0.000268 92.025169 464.669525
[weapon_bone]
5 -987.239868 1448.372803 0.001431 0.000000 89.965736 -31.038221 1752.833740
6 -987.239868 1448.372803 0.001431 0.000000 89.965736 -31.038221 1752.833740
7 -987.239868 1448.372803 0.001431 0.000000 89.965736 -31.038221 1752.833740
